<svg width="93" height="92" viewBox="0 0 93 92" fill="none" xmlns="http://www.w3.org/2000/svg">
<path d="M92.7068 49.7207C90.8125 73.3858 71.0097 92 46.8572 92C21.4521 92 0.857178 71.4051 0.857178 46C0.857178 45.4708 0.868746 44.9438 0.886475 44.4189L25.4714 56.4375C25.4179 56.7838 25.3904 57.1387 25.3904 57.5C25.3904 61.3108 28.48 64.4004 32.2908 64.4004C36.1014 64.4002 39.1902 61.3107 39.1902 57.5C39.1902 56.8083 39.0876 56.1407 38.8982 55.5107L58.4539 39.376C59.631 41.497 61.8932 42.9326 64.491 42.9326C67.4148 42.9324 69.9111 41.1128 70.9158 38.5449L92.7068 49.7207ZM46.8572 0C72.2623 0 92.8572 20.5949 92.8572 46C92.8572 46.5134 92.8456 47.0248 92.8289 47.5342L71.3699 36.5303C71.3816 36.366 71.3904 36.2004 71.3904 36.0332C71.3904 32.2226 68.3015 29.1331 64.491 29.1328C60.6802 29.1328 57.5906 32.2224 57.5906 36.0332C57.5906 36.4965 57.6363 36.949 57.7234 37.3867L38.0144 53.6455C36.7748 51.8083 34.6738 50.6007 32.2908 50.6006C29.5532 50.6006 27.1871 52.1942 26.072 54.5049L1.00854 42.252C2.91583 18.5999 22.714 0 46.8572 0Z" fill="#FF5F57"/>
<path d="M92.7068 49.7207C90.8125 73.3858 71.0097 92 46.8572 92C21.4521 92 0.857178 71.4051 0.857178 46C0.857178 45.4708 0.868746 44.9438 0.886475 44.4189L25.4714 56.4375C25.4179 56.7838 25.3904 57.1387 25.3904 57.5C25.3904 61.3108 28.48 64.4004 32.2908 64.4004C36.1014 64.4002 39.1902 61.3107 39.1902 57.5C39.1902 56.8083 39.0876 56.1407 38.8982 55.5107L58.4539 39.376C59.631 41.497 61.8932 42.9326 64.491 42.9326C67.4148 42.9324 69.9111 41.1128 70.9158 38.5449L92.7068 49.7207ZM46.8572 0C72.2623 0 92.8572 20.5949 92.8572 46C92.8572 46.5134 92.8456 47.0248 92.8289 47.5342L71.3699 36.5303C71.3816 36.366 71.3904 36.2004 71.3904 36.0332C71.3904 32.2226 68.3015 29.1331 64.491 29.1328C60.6802 29.1328 57.5906 32.2224 57.5906 36.0332C57.5906 36.4965 57.6363 36.949 57.7234 37.3867L38.0144 53.6455C36.7748 51.8083 34.6738 50.6007 32.2908 50.6006C29.5532 50.6006 27.1871 52.1942 26.072 54.5049L1.00854 42.252C2.91583 18.5999 22.714 0 46.8572 0Z" fill="#FF5F57"/>
</svg>
